<?xml version="1.0" encoding="UTF-8"?><!DOCTYPE svg PUBLIC "-//W3C//DTD SVG 1.1//EN" "http://www.w3.org/Graphics/SVG/1.1/DTD/svg11.dtd"><svg xmlns="http://www.w3.org/2000/svg"><symbol id="dribbble" viewBox="0 0 56.693 56.693"><path fill-rule="evenodd" clip-rule="evenodd" d="M52.43 24.152a24.597 24.597 0 0 0-3.72-8.845 24.87 24.87 0 0 0-10.873-8.955 24.813 24.813 0 0 0-19.247 0 24.777 24.777 0 0 0-10.873 8.955 24.56 24.56 0 0 0-3.722 8.845 24.877 24.877 0 0 0 0 9.956 24.67 24.67 0 0 0 6.737 12.502 24.696 24.696 0 0 0 7.857 5.295 24.687 24.687 0 0 0 9.624 1.945 24.668 24.668 0 0 0 13.822-4.224 24.857 24.857 0 0 0 6.674-6.672 24.62 24.62 0 0 0 4.222-13.826 24.706 24.706 0 0 0-.501-4.976zm-3.114 4.767c-.305-.066-7.449-1.604-14.703-.692a63.211 63.211 0 0 0-1.859-4.152c8.338-3.402 11.723-8.297 11.762-8.355a21.006 21.006 0 0 1 4.8 13.199zm-7.16-15.634c-.053.082-3.059 4.658-11.027 7.645-3.609-6.631-7.574-11.898-7.891-12.316a21.077 21.077 0 0 1 4.975-.596 21.029 21.029 0 0 1 13.943 5.267zm-19-4.654c0 .002-.004.004-.004.004l-.062.014c.021-.006.045-.01.066-.018zm-3.951 1.404c.281.377 4.186 5.67 7.84 12.164-10.137 2.693-18.934 2.588-19.492 2.578 1.372-6.539 5.765-11.961 11.652-14.742zM7.102 29.128c0-.225.01-.445.018-.667.372.008 10.804.245 21.673-3.008a69.069 69.069 0 0 1 1.713 3.589c-.279.078-.557.162-.832.252-11.393 3.682-17.172 13.934-17.172 13.934s.008.006.008.01a21.042 21.042 0 0 1-5.408-14.11zm21.111 21.113a21.02 21.02 0 0 1-13.447-4.838c.277.225.473.369.473.369s4.047-8.826 16.566-13.188c.047-.018.094-.031.141-.045 2.971 7.719 4.197 14.184 4.51 16.029a21.003 21.003 0 0 1-8.243 1.673zM40.01 46.64c-.215-1.275-1.34-7.471-4.109-15.08 6.814-1.09 12.721.779 13.156.922-.94 5.882-4.307 10.956-9.047 14.158z"/></symbol><symbol id="facebook" viewBox="0 0 56.693 56.693"><path d="M40.43 21.739h-7.645v-5.014c0-1.883 1.248-2.322 2.127-2.322h5.395V6.125l-7.43-.029c-8.248 0-10.125 6.174-10.125 10.125v5.518h-4.77v8.53h4.77v24.137h10.033V30.269h6.77l.875-8.53z"/></symbol><symbol id="github" viewBox="-91 49.217 56.693 56.693"><path d="M-38.177 78.235l.031.002a.17.17 0 0 0 .166-.139.17.17 0 0 0-.135-.197c-2.312-.426-4.003-.897-9.709-.85.356-1.315.548-2.871.586-4.714-.009-4.997-2.4-6.764-2.86-7.594.678-3.782-.113-5.504-.48-6.095-1.355-.482-4.714 1.24-6.549 2.454-2.992-.875-9.316-.79-11.687.226-4.375-3.134-6.69-2.654-6.69-2.654S-77 61.356-75.9 65.28c-1.44 1.835-2.513 3.133-2.513 6.575 0 1.939.228 3.674.743 5.19-2.29-.006-7.09.302-9.338.858a.172.172 0 0 0-.124.205.17.17 0 0 0 .206.124c2.268-.56 7.228-.866 9.378-.848.123.327.261.643.413.949-5.527.147-7.017.936-9.338 1.515a62.16 62.16 0 0 1-.493.123.17.17 0 1 0 .081.33l.495-.124c2.327-.582 3.838-1.376 9.432-1.51 1.644 2.985 4.814 4.843 10.162 5.357-.763.579-1.68 1.679-1.807 2.95-.96.621-2.89.826-4.39.353-2.102-.664-2.907-4.827-6.056-4.235-.682.129-.546.579.043.96.96.621 1.863 1.398 2.56 3.052.535 1.27 1.66 3.54 5.217 3.54 1.411 0 2.4-.17 2.4-.17s.028 3.243.028 4.503c0 1.453-1.961 1.863-1.961 2.562 0 .277.649.303 1.17.303 1.032 0 3.177-.86 3.177-2.372 0-1.2.02-5.236.02-5.941 0-1.544.827-2.033.827-2.033s.103 8.24-.198 9.344c-.352 1.299-.988 1.115-.988 1.694 0 .861 2.583.211 3.439-1.68.661-1.473.372-9.555.372-9.555l.706-.015s.04 3.7.016 5.392c-.025 1.751-.144 3.967.896 5.011.683.687 2.899 1.891 2.899.79 0-.64-1.214-1.166-1.214-2.898v-7.97c.969 0 .823 2.62.823 2.62l.071 4.87s-.213 1.774 1.919 2.517c.752.263 2.362.334 2.438-.107.075-.443-1.94-1.101-1.957-2.476-.012-.837.037-1.326.037-4.968 0-3.641-.489-4.987-2.193-6.06 5.259-.541 8.513-1.842 10.1-5.327 1.822.06 5.638.247 10.074 1.603a.17.17 0 0 0 .098-.324c-4.375-1.338-8.074-1.547-10.028-1.613.123-.302.236-.62.337-.953 5.738-.053 7.434.417 9.743.844zm-39.84 5.54c-.21 0-.38-.115-.38-.255s.17-.254.38-.254.381.114.381.254-.17.254-.38.254zm.805.39c0-.14.17-.254.38-.254.211 0 .382.114.382.254s-.17.254-.381.254c-.21 0-.381-.114-.381-.254zm.724.86c0-.14.17-.253.381-.253s.381.114.381.254-.17.254-.38.254-.382-.114-.382-.254zm1.016 1.229c-.21 0-.38-.114-.38-.254s.17-.254.38-.254.382.114.382.254-.171.254-.382.254zm.725.917c-.21 0-.381-.113-.381-.254s.17-.254.381-.254c.21 0 .381.114.381.254s-.17.254-.38.254zm.979.781c-.21 0-.381-.113-.381-.254 0-.14.17-.254.38-.254.211 0 .382.114.382.254s-.17.254-.381.254zm1.369.508c-.21 0-.381-.113-.381-.254 0-.14.17-.254.38-.254.211 0 .382.114.382.254s-.17.254-.381.254zm1.374 0c-.21 0-.381-.113-.381-.254 0-.14.17-.254.38-.254.211 0 .382.114.382.254s-.17.254-.381.254zm1.378-.216c-.21 0-.38-.114-.38-.254s.17-.254.38-.254.381.114.381.254-.17.254-.38.254zm10.794-5.408a106.2 106.2 0 0 1-6.943-.002c-5.777-.202-8.959-2.64-8.959-6.865 0-.439.093-1.98 1.288-3.414 1.162-1.393 2.942-2.13 5.148-2.13.15 0 .42.018.965.051 1.17.073 3.128.195 5.067.195 1.755 0 3.53-.13 4.484-.2.447-.032.626-.045.741-.045 4.693 0 6.365 2.998 6.365 5.804 0 2.892-1.415 6.385-8.156 6.606z"/><path d="M-79.165 86.49c.91 0 .016-1.411 0-2.071-.004.642-.909 2.07 0 2.07zM-61.456 80.42a.17.17 0 0 0-.169.17c0 .372-.439.79-1.026.79-.084 0-.166-.01-.244-.026a1.337 1.337 0 0 1-.588-.298 1.375 1.375 0 0 1-.193-.199c-.085-.108-.132-.208-.132-.268a.17.17 0 0 0-.339 0c0 .049.01.102.029.16.028.086.077.18.144.273.067.094.151.189.251.277.1.087.215.168.342.235a1.599 1.599 0 0 0 .73.184 1.48 1.48 0 0 0 .984-.364c.06-.054.114-.112.161-.173a1.03 1.03 0 0 0 .213-.491.795.795 0 0 0 .007-.1.17.17 0 0 0-.17-.17zM-63.153 79.513a.585.585 0 0 0 .916.066.582.582 0 0 0 .101-.166c.03-.07.05-.145.05-.226a.583.583 0 0 0-.996-.413l-.012.015a.584.584 0 0 0-.078.107.577.577 0 0 0-.069.409.578.578 0 0 0 .088.208zM-67.473 73.395c-.12-.147-.249-.277-.386-.388s-.282-.203-.434-.273a1.752 1.752 0 0 0-.719-.162c-1.335 0-2.418 1.614-2.418 3.604s1.083 3.378 2.418 3.378a1.894 1.894 0 0 0 .72-.141c.15-.062.296-.143.433-.242.137-.098.266-.215.386-.348.119-.133.229-.282.327-.446.345-.575.553-1.33.553-2.201s-.208-1.67-.553-2.292a3.327 3.327 0 0 0-.327-.49zM-55.941 72.572c-1.336 0-2.419 1.613-2.419 3.604s1.083 3.378 2.418 3.378 2.419-1.388 2.419-3.378-1.083-3.604-2.418-3.604z"/></symbol><symbol id="linkedin" viewBox="0 0 56.693 56.693"><path d="M30.071 27.101v-.077a2.031 2.031 0 0 1-.05.077h.05z"/><path d="M49.265 4.667H7.145c-2.016 0-3.651 1.596-3.651 3.563v42.613c0 1.966 1.635 3.562 3.651 3.562h42.12c2.019 0 3.654-1.597 3.654-3.562V8.23c0-1.968-1.636-3.563-3.654-3.563zm-30.79 41.637H11.01V23.845h7.465v22.459zm-3.732-25.527h-.05c-2.504 0-4.124-1.725-4.124-3.88 0-2.203 1.67-3.88 4.223-3.88 2.554 0 4.125 1.677 4.175 3.88 0 2.155-1.622 3.88-4.224 3.88zm30.651 25.527h-7.465V34.286c0-3.018-1.08-5.078-3.781-5.078-2.062 0-3.29 1.389-3.831 2.731-.197.479-.245 1.149-.245 1.821v12.543h-7.465s.098-20.354 0-22.459h7.465v3.179c.992-1.53 2.766-3.709 6.729-3.709 4.911 0 8.594 3.211 8.594 10.11v12.88z"/></symbol><symbol id="twitter" viewBox="0 0 56.693 56.693"><path d="M54.082 15.55a20.14 20.14 0 0 1-5.805 1.59 10.13 10.13 0 0 0 4.444-5.591 20.231 20.231 0 0 1-6.418 2.454 10.093 10.093 0 0 0-7.377-3.192c-5.581 0-10.107 4.525-10.107 10.107 0 .792.09 1.563.262 2.302-8.4-.42-15.848-4.444-20.832-10.56a10.058 10.058 0 0 0-1.369 5.082c0 3.506 1.785 6.6 4.497 8.412a10.07 10.07 0 0 1-4.578-1.264l-.001.128c0 4.896 3.484 8.98 8.108 9.91a10.143 10.143 0 0 1-4.565.173c1.287 4.015 5.019 6.937 9.44 7.019A20.277 20.277 0 0 1 7.23 46.446c-.816 0-1.62-.048-2.411-.14a28.606 28.606 0 0 0 15.493 4.54c18.59 0 28.756-15.4 28.756-28.757 0-.437-.009-.874-.028-1.307a20.518 20.518 0 0 0 5.042-5.232z"/></symbol></svg>